<?xml version="1.0" encoding="utf-8"?>
<!-- Generator: Adobe Illustrator 28.1.0, SVG Export Plug-In . SVG Version: 6.00 Build 0)  -->
<svg version="1.1" id="RTRF_x5F_Logo" xmlns="http://www.w3.org/2000/svg" xmlns:xlink="http://www.w3.org/1999/xlink" x="0px"
	 y="0px" viewBox="0 0 549.2 363.6" style="enable-background:new 0 0 549.2 363.6;" xml:space="preserve">
<style type="text/css">
	.st0{fill:#030303;}
	.st1{fill-rule:evenodd;clip-rule:evenodd;fill:#030303;}
</style>
<g>
	<g>
		<path class="st0" d="M271.4,157.7l-4.5-11.7h-0.4h-4.3v11.7h-2.1v-27.2h6.4c4.1,0,6.2,1.9,6.2,5.8v4c0,3-1.2,4.8-3.7,5.4l4.7,12
			H271.4z M270.6,139.5v-2.6c0-3.2-1.2-4.5-4.3-4.5h-4.2V144h4.2C269.4,144,270.6,142.7,270.6,139.5z"/>
		<path class="st0" d="M281.3,157.7v-27.2h2.1v27.2H281.3z"/>
		<path class="st0" d="M301.8,139.9v-3.5c0-3-1.1-4.3-4-4.3c-2.9,0-4,1.3-4,4.3v1.9c0,2,0.7,2.6,2.8,3.7l4.2,2.3
			c1.9,1,3.3,2.5,3.3,4.6v3.5c0,3.9-2,5.7-6.1,5.7h-0.1c-4.1,0-6.1-1.7-6.1-5.7v-4.4h2.1v3.8c0,3,1.1,4.4,4,4.4s4-1.4,4-4.4v-2.2
			c0-2-0.8-2.7-2.9-3.9l-4.1-2.2c-2.3-1.3-3.2-2.3-3.2-4.5v-3.1c0-3.7,2.3-5.6,6.1-5.6h0.1c3.7,0,6.1,1.9,6.1,5.6v4.1H301.8z"/>
		<path class="st0" d="M312.2,157.7v-27.2h2.1v27.2H312.2z"/>
		<path class="st0" d="M323.2,157.7v-27.2h2.2l8.9,22.2v-22.2h2v27.2h-2.1l-9-22.4v22.4H323.2z"/>
		<path class="st0" d="M357.5,152.2c0,3.9-2.1,5.7-6.2,5.7H351c-4.1,0-6.2-1.8-6.2-5.7v-16.3c0-3.7,2.1-5.8,6.2-5.8h0.3
			c4.1,0,6.2,2,6.2,5.8v3.6h-2.1v-2.9c0-3.2-1.2-4.5-4.3-4.5c-3.1,0-4.3,1.3-4.3,4.5v14.9c0,3.2,1.2,4.5,4.3,4.5
			c3.1,0,4.3-1.3,4.3-4.5v-5.4H351v-1.9h6.5V152.2z"/>
		<path class="st0" d="M383.6,132.4h-5.1v25.3h-2.1v-25.3h-5.1v-1.9h12.4V132.4z"/>
		<path class="st0" d="M391.3,157.7v-27.2h2.1v27.2H391.3z"/>
		<path class="st0" d="M414,136.2v15.7c0,3.8-2.1,5.7-6.2,5.7h-6.3v-27.2h6.3C411.9,130.5,414,132.4,414,136.2z M407.7,132.4h-4.1
			v23.3h4.1c3.1,0,4.3-1.3,4.3-4.5v-14.3C411.9,133.7,410.7,132.4,407.7,132.4z"/>
		<path class="st0" d="M421,157.7v-27.2h10.7v1.9h-8.6v10.5h7.4v1.9h-7.4v10.9h8.7v1.9H421z"/>
		<path class="st0" d="M271.7,193.6l-4.6-11.7h-0.4h-4.4v11.7h-2.1v-27.2h6.5c4.2,0,6.3,1.9,6.3,5.8v4c0,3-1.3,4.8-3.8,5.4l4.8,12
			H271.7z M270.9,175.5v-2.6c0-3.2-1.2-4.5-4.4-4.5h-4.2V180h4.2C269.7,180,270.9,178.7,270.9,175.5z"/>
		<path class="st0" d="M283.7,193.6v-27.2h10.9v1.9h-8.8v10.5h7.5v1.9h-7.5v10.9h8.9v1.9H283.7z"/>
		<path class="st0" d="M314.9,175.8v-3.5c0-3-1.1-4.3-4.1-4.3c-3,0-4.1,1.3-4.1,4.3v1.9c0,2,0.7,2.6,2.8,3.7l4.2,2.3
			c1.9,1,3.3,2.5,3.3,4.6v3.5c0,3.9-2,5.7-6.2,5.7h-0.1c-4.2,0-6.2-1.7-6.2-5.7v-4.4h2.1v3.8c0,3,1.1,4.4,4.1,4.4s4.1-1.4,4.1-4.4
			v-2.2c0-2-0.8-2.7-2.9-3.9l-4.2-2.2c-2.3-1.3-3.3-2.3-3.3-4.5v-3.1c0-3.7,2.4-5.6,6.2-5.6h0.1c3.8,0,6.2,1.9,6.2,5.6v4.1H314.9z"
			/>
		<path class="st0" d="M327.4,193.6v-27.2h10.9v1.9h-8.8v10.5h7.5v1.9h-7.5v10.9h8.9v1.9H327.4z"/>
		<path class="st0" d="M357.8,186.6h-7.5l-1.5,7h-2.1l6.2-27.2h2.5l6.3,27.2h-2.2L357.8,186.6z M357.4,184.7l-3.3-15l-3.3,15H357.4z
			"/>
		<path class="st0" d="M382.4,193.6l-4.6-11.7h-0.4H373v11.7h-2.1v-27.2h6.5c4.2,0,6.3,1.9,6.3,5.8v4c0,3-1.3,4.8-3.8,5.4l4.8,12
			H382.4z M381.6,175.5v-2.6c0-3.2-1.2-4.5-4.4-4.5H373V180h4.2C380.4,180,381.6,178.7,381.6,175.5z"/>
		<path class="st0" d="M406.9,188.2c0,3.9-2.1,5.7-6.3,5.7h-0.1c-4.2,0-6.3-1.8-6.3-5.7v-16.3c0-3.7,2.1-5.8,6.3-5.8h0.1
			c4.2,0,6.3,2,6.3,5.8v4.7h-2.1v-4c0-3.2-1.1-4.5-4.2-4.5s-4.2,1.3-4.2,4.5v14.9c0,3.2,1.1,4.5,4.2,4.5s4.2-1.3,4.2-4.5v-4.6h2.1
			V188.2z"/>
		<path class="st0" d="M420.5,166.4v12.4h8.9v-12.4h2.1v27.2h-2.1v-12.9h-8.9v12.9h-2.1v-27.2H420.5z"/>
		<path class="st0" d="M260.1,202.4h10.5v1.9h-8.4V215h7.2v1.9h-7.2v12.6h-2.1V202.4z"/>
		<path class="st0" d="M282.6,202.1h0.3c4.1,0,6.2,1.9,6.2,5.8v16.3c0,3.8-2.1,5.7-6.2,5.7h-0.3c-4.1,0-6.2-1.9-6.2-5.7v-16.3
			C276.4,204,278.5,202.1,282.6,202.1z M282.8,227.9c3.1,0,4.3-1.3,4.3-4.5v-14.9c0-3.2-1.2-4.5-4.3-4.5c-3.1,0-4.3,1.3-4.3,4.5
			v14.9C278.5,226.7,279.7,227.9,282.8,227.9z"/>
		<path class="st0" d="M308.8,224.1c0,3.9-2,5.7-6.1,5.7h-0.2c-4.1,0-6.1-1.8-6.1-5.7v-21.8h2.1v21.1c0,3.2,1,4.5,4.1,4.5
			s4.1-1.3,4.1-4.5v-21.1h2.1V224.1z"/>
		<path class="st0" d="M316.2,229.6v-27.2h2.2l8.9,22.2v-22.2h2v27.2h-2.1l-9-22.4v22.4H316.2z"/>
		<path class="st0" d="M349.3,208.1v15.7c0,3.8-2.1,5.7-6.2,5.7h-6.3v-27.2h6.3C347.2,202.4,349.3,204.3,349.3,208.1z M342.9,204.3
			h-4.1v23.3h4.1c3.1,0,4.3-1.3,4.3-4.5v-14.3C347.2,205.6,346,204.3,342.9,204.3z"/>
		<path class="st0" d="M365.3,222.6H358l-1.5,7h-2.1l6.1-27.2h2.4l6.1,27.2h-2.2L365.3,222.6z M364.8,220.7l-3.2-15l-3.2,15H364.8z"
			/>
		<path class="st0" d="M383.1,204.3H378v25.3h-2.1v-25.3h-5.1v-1.9h12.4V204.3z"/>
		<path class="st0" d="M388.9,229.6v-27.2h2.1v27.2H388.9z"/>
		<path class="st0" d="M404.7,202.1h0.3c4.1,0,6.2,1.9,6.2,5.8v16.3c0,3.8-2.1,5.7-6.2,5.7h-0.3c-4.1,0-6.2-1.9-6.2-5.7v-16.3
			C398.5,204,400.6,202.1,404.7,202.1z M404.9,227.9c3.1,0,4.3-1.3,4.3-4.5v-14.9c0-3.2-1.2-4.5-4.3-4.5c-3.1,0-4.3,1.3-4.3,4.5
			v14.9C400.6,226.7,401.8,227.9,404.9,227.9z"/>
		<path class="st0" d="M418.5,229.6v-27.2h2.2l8.9,22.2v-22.2h2v27.2h-2.1l-9-22.4v22.4H418.5z"/>
	</g>
	<path class="st0" d="M222,253.4H78.8V110.2H222V253.4z M80.6,251.6h139.6V112H80.6V251.6z"/>
	<path class="st0" d="M470.4,253.4H220.2V110.2h250.2V253.4z M222,251.6h246.6V112H222V251.6z"/>
	<path class="st1" d="M165.9,132.6c0-0.1-0.1-0.2-0.2-0.1c-3.2,3.7-24.1,28.1-35.2,41.1c-0.1,0.1-0.2,0.2-0.3,0.3h3.2c0,0,0,0,0.1,0
		c3,0,6.2,0.5,9.5,1.5c2.1,0.6,5.1,1.7,9,3.4c3.7,1.6,6.6,2.6,8.4,3.2c2.8,0.8,5.4,1.2,7.9,1.3c0,0,0.1,0,0.1,0h7.9l13.8-16.2
		c0.1-0.1,0-0.2-0.1-0.2l-34.4-0.2c-0.1,0-0.1-0.1-0.1-0.2L165.9,132.6z"/>
	<path class="st1" d="M170.6,189.8l-3.3,0c0,0,0,0-0.1,0c-3,0-6.2-0.5-9.5-1.5c-2.1-0.6-5.1-1.7-9-3.4c-3.7-1.6-6.6-2.6-8.4-3.2
		c-2.8-0.8-5.4-1.2-7.9-1.2c0,0-0.1,0-0.1,0l-7.9,0c-5.9,7-12.7,14.9-13.9,16.3c-0.1,0.1,0,0.2,0.1,0.2l34.4,0.2
		c0.1,0,0.1,0.1,0.1,0.2L135.1,231c0,0.1,0.1,0.2,0.2,0.1l35-40.9L170.6,189.8L170.6,189.8z"/>
</g>
</svg>
