<?xml version="1.0" encoding="utf-8"?>
<!-- Generator: Adobe Illustrator 28.1.0, SVG Export Plug-In . SVG Version: 6.00 Build 0)  -->
<svg version="1.1" id="RTRF_x5F_Logo" xmlns="http://www.w3.org/2000/svg" xmlns:xlink="http://www.w3.org/1999/xlink" x="0px"
	 y="0px" viewBox="0 0 909 363.6" style="enable-background:new 0 0 909 363.6;" xml:space="preserve">
<style type="text/css">
	.st0{fill:#030303;}
	.st1{fill-rule:evenodd;clip-rule:evenodd;fill:#030303;}
</style>
<g>
	<path class="st0" d="M168.5,202.8H91.9v-76.6h76.6V202.8z M94,200.7h72.4v-72.4H94V200.7z"/>
	<g>
		<path class="st1" d="M138.3,138.6c0-0.1-0.1-0.1-0.1-0.1c-1.7,2-12.7,14.8-18.5,21.6c0,0.1-0.1,0.1-0.1,0.2h1.7c0,0,0,0,0,0
			c1.6,0,3.2,0.3,5,0.8c1.1,0.3,2.7,0.9,4.7,1.8c2,0.8,3.5,1.4,4.4,1.7c1.5,0.4,2.9,0.7,4.2,0.7c0,0,0,0,0,0h4.2l7.3-8.5
			c0,0,0-0.1-0.1-0.1l-18.1-0.1c0,0-0.1,0-0.1-0.1L138.3,138.6z"/>
		<path class="st1" d="M140.8,168.7l-1.7,0c0,0,0,0,0,0c-1.6,0-3.2-0.3-5-0.8c-1.1-0.3-2.7-0.9-4.7-1.8c-2-0.8-3.5-1.4-4.4-1.7
			c-1.5-0.4-2.9-0.7-4.1-0.7c0,0,0,0,0,0h-4.1c-3.1,3.7-6.7,7.8-7.3,8.6c0,0,0,0.1,0.1,0.1l18.1,0.1c0,0,0.1,0,0.1,0.1l-5.4,17.8
			c0,0.1,0.1,0.1,0.1,0.1l18.4-21.6L140.8,168.7L140.8,168.7z"/>
	</g>
	<polygon class="st0" points="817.1,202.8 167.4,202.8 167.4,200.7 815,200.7 815,128.3 167.4,128.3 167.4,126.2 817.1,126.2 	"/>
	<g>
		<g>
			<path class="st0" d="M207.2,181.7l-5.3-13.9h-0.5h-5.1v13.9h-2.5v-32.2h7.6c4.9,0,7.4,2.3,7.4,6.8v4.7c0,3.5-1.5,5.7-4.4,6.4
				l5.5,14.3H207.2z M206.3,160.2v-3.1c0-3.8-1.4-5.3-5.1-5.3h-4.9v13.8h4.9C204.9,165.5,206.3,164,206.3,160.2z"/>
			<path class="st0" d="M217.5,181.7v-32.2h2.5v32.2H217.5z"/>
			<path class="st0" d="M240.4,160.6v-4.1c0-3.5-1.3-5.1-4.7-5.1c-3.5,0-4.7,1.6-4.7,5.1v2.3c0,2.4,0.8,3,3.3,4.3l4.9,2.7
				c2.3,1.2,3.9,3,3.9,5.4v4.1c0,4.6-2.3,6.7-7.2,6.7h-0.1c-4.9,0-7.2-2.1-7.2-6.7v-5.2h2.5v4.5c0,3.5,1.3,5.2,4.8,5.2
				s4.8-1.7,4.8-5.2V172c0-2.4-1-3.2-3.4-4.6l-4.8-2.6c-2.7-1.5-3.8-2.8-3.8-5.3v-3.7c0-4.4,2.8-6.6,7.2-6.6h0.1
				c4.4,0,7.2,2.2,7.2,6.6v4.9H240.4z"/>
			<path class="st0" d="M250.3,181.7v-32.2h2.5v32.2H250.3z"/>
			<path class="st0" d="M261,181.7v-32.2h2.6l10.5,26.3v-26.3h2.4v32.2H274l-10.7-26.5v26.5H261z"/>
			<path class="st0" d="M300.2,175.2c0,4.6-2.5,6.8-7.4,6.8h-0.4c-4.9,0-7.4-2.2-7.4-6.8v-19.3c0-4.4,2.5-6.8,7.4-6.8h0.4
				c4.9,0,7.4,2.4,7.4,6.8v4.2h-2.5v-3.4c0-3.8-1.4-5.3-5.1-5.3c-3.6,0-5.1,1.5-5.1,5.3v17.7c0,3.8,1.4,5.3,5.1,5.3
				c3.6,0,5.1-1.5,5.1-5.3V168h-5.2v-2.3h7.7V175.2z"/>
			<path class="st0" d="M328.6,151.8h-6.1v29.9H320v-29.9h-6.1v-2.3h14.6V151.8z"/>
			<path class="st0" d="M334.5,181.7v-32.2h2.5v32.2H334.5z"/>
			<path class="st0" d="M359,156.3v18.6c0,4.5-2.5,6.8-7.4,6.8h-7.5v-32.2h7.5C356.5,149.5,359,151.8,359,156.3z M351.5,151.8h-4.8
				v27.6h4.8c3.6,0,5.1-1.5,5.1-5.3v-16.9C356.5,153.3,355.1,151.8,351.5,151.8z"/>
			<path class="st0" d="M366.7,181.7v-32.2h12.7v2.3h-10.2v12.4h8.7v2.3h-8.7v12.9h10.3v2.3H366.7z"/>
			<path class="st0" d="M410.7,181.7l-5.3-13.9h-0.5h-5.1v13.9h-2.5v-32.2h7.6c4.9,0,7.4,2.3,7.4,6.8v4.7c0,3.5-1.5,5.7-4.4,6.4
				l5.5,14.3H410.7z M409.8,160.2v-3.1c0-3.8-1.4-5.3-5.1-5.3h-4.9v13.8h4.9C408.3,165.5,409.8,164,409.8,160.2z"/>
			<path class="st0" d="M420.8,181.7v-32.2h12.7v2.3h-10.2v12.4h8.7v2.3h-8.7v12.9h10.3v2.3H420.8z"/>
			<path class="st0" d="M452.3,160.6v-4.1c0-3.5-1.3-5.1-4.7-5.1c-3.5,0-4.7,1.6-4.7,5.1v2.3c0,2.4,0.8,3,3.3,4.3l4.9,2.7
				c2.3,1.2,3.9,3,3.9,5.4v4.1c0,4.6-2.3,6.7-7.2,6.7h-0.1c-4.9,0-7.2-2.1-7.2-6.7v-5.2h2.5v4.5c0,3.5,1.3,5.2,4.8,5.2
				s4.8-1.7,4.8-5.2V172c0-2.4-1-3.2-3.4-4.6l-4.8-2.6c-2.7-1.5-3.8-2.8-3.8-5.3v-3.7c0-4.4,2.8-6.6,7.2-6.6h0.1
				c4.4,0,7.2,2.2,7.2,6.6v4.9H452.3z"/>
			<path class="st0" d="M462.9,181.7v-32.2h12.7v2.3h-10.2v12.4h8.7v2.3h-8.7v12.9h10.3v2.3H462.9z"/>
			<path class="st0" d="M494.4,173.4h-8.6l-1.8,8.3h-2.5l7.2-32.2h2.9l7.3,32.2h-2.6L494.4,173.4z M493.9,171.1l-3.8-17.8l-3.8,17.8
				H493.9z"/>
			<path class="st0" d="M519,181.7l-5.3-13.9h-0.5h-5.1v13.9h-2.5v-32.2h7.6c4.9,0,7.4,2.3,7.4,6.8v4.7c0,3.5-1.5,5.7-4.4,6.4
				l5.5,14.3H519z M518.1,160.2v-3.1c0-3.8-1.4-5.3-5.1-5.3h-4.9v13.8h4.9C516.7,165.5,518.1,164,518.1,160.2z"/>
			<path class="st0" d="M543.5,175.2c0,4.6-2.5,6.8-7.4,6.8h-0.1c-4.9,0-7.4-2.2-7.4-6.8v-19.3c0-4.4,2.5-6.8,7.4-6.8h0.1
				c4.9,0,7.4,2.4,7.4,6.8v5.5H541v-4.7c0-3.8-1.3-5.3-4.9-5.3s-4.9,1.6-4.9,5.3v17.7c0,3.8,1.3,5.3,4.9,5.3s4.9-1.6,4.9-5.3v-5.5
				h2.5V175.2z"/>
			<path class="st0" d="M554.5,149.5v14.7h10.4v-14.7h2.5v32.2h-2.5v-15.2h-10.4v15.2H552v-32.2H554.5z"/>
			<path class="st0" d="M586.2,149.5h12.5v2.3h-10v12.7h8.6v2.3h-8.6v15h-2.5V149.5z"/>
			<path class="st0" d="M612.7,149.1h0.4c4.9,0,7.4,2.3,7.4,6.8v19.3c0,4.5-2.5,6.8-7.4,6.8h-0.4c-4.9,0-7.4-2.3-7.4-6.8v-19.3
				C605.3,151.4,607.8,149.1,612.7,149.1z M612.8,179.7c3.6,0,5.1-1.5,5.1-5.3v-17.7c0-3.8-1.4-5.3-5.1-5.3c-3.6,0-5.1,1.5-5.1,5.3
				v17.7C607.8,178.2,609.2,179.7,612.8,179.7z"/>
			<path class="st0" d="M643.7,175.2c0,4.6-2.4,6.8-7.3,6.8h-0.2c-4.9,0-7.3-2.2-7.3-6.8v-25.8h2.5v24.9c0,3.8,1.2,5.3,4.9,5.3
				s4.9-1.5,4.9-5.3v-24.9h2.5V175.2z"/>
			<path class="st0" d="M652.4,181.7v-32.2h2.6l10.5,26.3v-26.3h2.4v32.2h-2.4l-10.7-26.5v26.5H652.4z"/>
			<path class="st0" d="M691.6,156.3v18.6c0,4.5-2.5,6.8-7.4,6.8h-7.5v-32.2h7.5C689.1,149.5,691.6,151.8,691.6,156.3z M684.1,151.8
				h-4.8v27.6h4.8c3.6,0,5.1-1.5,5.1-5.3v-16.9C689.1,153.3,687.7,151.8,684.1,151.8z"/>
			<path class="st0" d="M710.8,173.4h-8.6l-1.8,8.3h-2.5l7.2-32.2h2.9l7.3,32.2h-2.6L710.8,173.4z M710.3,171.1l-3.8-17.8l-3.8,17.8
				H710.3z"/>
			<path class="st0" d="M732.3,151.8h-6.1v29.9h-2.5v-29.9h-6.1v-2.3h14.6V151.8z"/>
			<path class="st0" d="M739.1,181.7v-32.2h2.5v32.2H739.1z"/>
			<path class="st0" d="M757.8,149.1h0.4c4.9,0,7.4,2.3,7.4,6.8v19.3c0,4.5-2.5,6.8-7.4,6.8h-0.4c-4.9,0-7.4-2.3-7.4-6.8v-19.3
				C750.4,151.4,752.9,149.1,757.8,149.1z M758,179.7c3.6,0,5.1-1.5,5.1-5.3v-17.7c0-3.8-1.4-5.3-5.1-5.3c-3.6,0-5.1,1.5-5.1,5.3
				v17.7C752.9,178.2,754.4,179.7,758,179.7z"/>
			<path class="st0" d="M774.2,181.7v-32.2h2.6l10.5,26.3v-26.3h2.4v32.2h-2.4l-10.7-26.5v26.5H774.2z"/>
		</g>
	</g>
</g>
</svg>
